<mxfile host="Electron" agent="Mozilla/5.0 (Macintosh; Intel Mac OS X 10_15_7) AppleWebKit/537.36 (KHTML, like Gecko) draw.io/26.2.2 Chrome/134.0.6998.178 Electron/35.1.2 Safari/537.36" version="26.2.2">
  <diagram name="Страница — 1" id="kJVgFP-XCL9LoOZHXFr-">
    <mxGraphModel dx="1458" dy="1083" grid="1" gridSize="10" guides="1" tooltips="1" connect="1" arrows="1" fold="1" page="1" pageScale="1" pageWidth="1169" pageHeight="827" background="none" math="0" shadow="0">
      <root>
        <mxCell id="0" />
        <mxCell id="1" parent="0" />
        <mxCell id="59MKXKUP5RYxz5AlFKz5-1" value="Window" style="swimlane;fontStyle=1;align=center;verticalAlign=top;childLayout=stackLayout;horizontal=1;startSize=26;horizontalStack=0;resizeParent=1;resizeParentMax=0;resizeLast=0;collapsible=1;marginBottom=0;whiteSpace=wrap;html=1;rounded=0;" parent="1" vertex="1">
          <mxGeometry x="135" y="33" width="160" height="78" as="geometry">
            <mxRectangle x="420" y="360" width="100" height="30" as="alternateBounds" />
          </mxGeometry>
        </mxCell>
        <mxCell id="wzKogEVJgoXQ_dvHDsTk-3" value="- onResize()" style="text;strokeColor=none;fillColor=none;align=left;verticalAlign=top;spacingLeft=4;spacingRight=4;overflow=hidden;rotatable=0;points=[[0,0.5],[1,0.5]];portConstraint=eastwest;whiteSpace=wrap;html=1;rounded=0;" parent="59MKXKUP5RYxz5AlFKz5-1" vertex="1">
          <mxGeometry y="26" width="160" height="26" as="geometry" />
        </mxCell>
        <mxCell id="wzKogEVJgoXQ_dvHDsTk-4" value="- onClose()" style="text;strokeColor=none;fillColor=none;align=left;verticalAlign=top;spacingLeft=4;spacingRight=4;overflow=hidden;rotatable=0;points=[[0,0.5],[1,0.5]];portConstraint=eastwest;whiteSpace=wrap;html=1;rounded=0;" parent="59MKXKUP5RYxz5AlFKz5-1" vertex="1">
          <mxGeometry y="52" width="160" height="26" as="geometry" />
        </mxCell>
        <mxCell id="gk4QDaXg1C4XhF2hDk9a-3" value="Engine" style="swimlane;fontStyle=1;align=center;verticalAlign=middle;childLayout=stackLayout;horizontal=1;startSize=26;horizontalStack=0;resizeParent=1;resizeParentMax=0;resizeLast=0;collapsible=1;marginBottom=0;whiteSpace=wrap;html=1;rounded=0;fontSize=18;" parent="1" vertex="1">
          <mxGeometry x="414" y="20" width="150" height="104" as="geometry" />
        </mxCell>
        <mxCell id="gk4QDaXg1C4XhF2hDk9a-6" value="- input()" style="text;strokeColor=none;fillColor=none;align=left;verticalAlign=top;spacingLeft=4;spacingRight=4;overflow=hidden;rotatable=0;points=[[0,0.5],[1,0.5]];portConstraint=eastwest;whiteSpace=wrap;html=1;rounded=0;" parent="gk4QDaXg1C4XhF2hDk9a-3" vertex="1">
          <mxGeometry y="26" width="150" height="26" as="geometry" />
        </mxCell>
        <mxCell id="QrIwYJtL0aNKeHC7VFV3-32" value="- update()" style="text;strokeColor=none;fillColor=none;align=left;verticalAlign=top;spacingLeft=4;spacingRight=4;overflow=hidden;rotatable=0;points=[[0,0.5],[1,0.5]];portConstraint=eastwest;whiteSpace=wrap;html=1;rounded=0;" vertex="1" parent="gk4QDaXg1C4XhF2hDk9a-3">
          <mxGeometry y="52" width="150" height="26" as="geometry" />
        </mxCell>
        <mxCell id="QrIwYJtL0aNKeHC7VFV3-33" value="- render()" style="text;strokeColor=none;fillColor=none;align=left;verticalAlign=top;spacingLeft=4;spacingRight=4;overflow=hidden;rotatable=0;points=[[0,0.5],[1,0.5]];portConstraint=eastwest;whiteSpace=wrap;html=1;rounded=0;" vertex="1" parent="gk4QDaXg1C4XhF2hDk9a-3">
          <mxGeometry y="78" width="150" height="26" as="geometry" />
        </mxCell>
        <mxCell id="wzKogEVJgoXQ_dvHDsTk-5" value="Mesh" style="swimlane;fontStyle=1;align=center;verticalAlign=top;childLayout=stackLayout;horizontal=1;startSize=26;horizontalStack=0;resizeParent=1;resizeParentMax=0;resizeLast=0;collapsible=1;marginBottom=0;whiteSpace=wrap;html=1;rounded=0;" parent="1" vertex="1">
          <mxGeometry x="604" y="550" width="150" height="78" as="geometry" />
        </mxCell>
        <mxCell id="wzKogEVJgoXQ_dvHDsTk-8" value="+ getVertices(): number[]" style="text;strokeColor=none;fillColor=none;align=left;verticalAlign=top;spacingLeft=4;spacingRight=4;overflow=hidden;rotatable=0;points=[[0,0.5],[1,0.5]];portConstraint=eastwest;whiteSpace=wrap;html=1;rounded=0;" parent="wzKogEVJgoXQ_dvHDsTk-5" vertex="1">
          <mxGeometry y="26" width="150" height="26" as="geometry" />
        </mxCell>
        <mxCell id="wzKogEVJgoXQ_dvHDsTk-9" value="+ getIndexes(): number[]" style="text;strokeColor=none;fillColor=none;align=left;verticalAlign=top;spacingLeft=4;spacingRight=4;overflow=hidden;rotatable=0;points=[[0,0.5],[1,0.5]];portConstraint=eastwest;whiteSpace=wrap;html=1;rounded=0;" parent="wzKogEVJgoXQ_dvHDsTk-5" vertex="1">
          <mxGeometry y="52" width="150" height="26" as="geometry" />
        </mxCell>
        <mxCell id="QrIwYJtL0aNKeHC7VFV3-47" style="edgeStyle=orthogonalEdgeStyle;rounded=0;orthogonalLoop=1;jettySize=auto;html=1;" edge="1" parent="1" source="wzKogEVJgoXQ_dvHDsTk-12" target="QrIwYJtL0aNKeHC7VFV3-22">
          <mxGeometry relative="1" as="geometry">
            <Array as="points">
              <mxPoint x="105" y="310" />
              <mxPoint x="185" y="310" />
            </Array>
          </mxGeometry>
        </mxCell>
        <mxCell id="wzKogEVJgoXQ_dvHDsTk-12" value="&lt;b&gt;Mesh&lt;/b&gt;&lt;b style=&quot;background-color: transparent; color: light-dark(rgb(0, 0, 0), rgb(255, 255, 255));&quot;&gt;RenderSystem&lt;/b&gt;" style="swimlane;fontStyle=0;childLayout=stackLayout;horizontal=1;startSize=26;horizontalStack=0;resizeParent=1;resizeParentMax=0;resizeLast=0;collapsible=1;marginBottom=0;whiteSpace=wrap;html=1;rounded=0;" parent="1" vertex="1">
          <mxGeometry x="35" y="340" width="140" height="52" as="geometry" />
        </mxCell>
        <mxCell id="wzKogEVJgoXQ_dvHDsTk-28" value="+ render(entity)" style="text;strokeColor=none;fillColor=none;align=left;verticalAlign=top;spacingLeft=4;spacingRight=4;overflow=hidden;rotatable=0;points=[[0,0.5],[1,0.5]];portConstraint=eastwest;whiteSpace=wrap;html=1;rounded=0;" parent="wzKogEVJgoXQ_dvHDsTk-12" vertex="1">
          <mxGeometry y="26" width="140" height="26" as="geometry" />
        </mxCell>
        <mxCell id="QrIwYJtL0aNKeHC7VFV3-61" style="edgeStyle=orthogonalEdgeStyle;rounded=0;orthogonalLoop=1;jettySize=auto;html=1;exitX=0.5;exitY=0.5;exitDx=0;exitDy=0;exitPerimeter=0;" edge="1" parent="1" source="wzKogEVJgoXQ_dvHDsTk-47" target="QrIwYJtL0aNKeHC7VFV3-49">
          <mxGeometry relative="1" as="geometry">
            <mxPoint x="1064" y="702" as="sourcePoint" />
            <Array as="points">
              <mxPoint x="1014" y="500" />
              <mxPoint x="774" y="500" />
            </Array>
          </mxGeometry>
        </mxCell>
        <mxCell id="wzKogEVJgoXQ_dvHDsTk-47" value="Shader" style="swimlane;fontStyle=1;align=center;verticalAlign=top;childLayout=stackLayout;horizontal=1;startSize=26;horizontalStack=0;resizeParent=1;resizeParentMax=0;resizeLast=0;collapsible=1;marginBottom=0;whiteSpace=wrap;html=1;" parent="1" vertex="1">
          <mxGeometry x="954" y="550" width="120" height="30" as="geometry" />
        </mxCell>
        <mxCell id="QrIwYJtL0aNKeHC7VFV3-73" style="edgeStyle=orthogonalEdgeStyle;rounded=0;orthogonalLoop=1;jettySize=auto;html=1;" edge="1" parent="1" source="wzKogEVJgoXQ_dvHDsTk-62" target="QrIwYJtL0aNKeHC7VFV3-49">
          <mxGeometry relative="1" as="geometry">
            <Array as="points">
              <mxPoint x="494" y="500" />
              <mxPoint x="774" y="500" />
            </Array>
          </mxGeometry>
        </mxCell>
        <mxCell id="wzKogEVJgoXQ_dvHDsTk-62" value="Camera" style="swimlane;fontStyle=1;align=center;verticalAlign=top;childLayout=stackLayout;horizontal=1;startSize=26;horizontalStack=0;resizeParent=1;resizeParentMax=0;resizeLast=0;collapsible=1;marginBottom=0;whiteSpace=wrap;html=1;" parent="1" vertex="1">
          <mxGeometry x="424" y="550" width="140" height="78" as="geometry" />
        </mxCell>
        <mxCell id="wzKogEVJgoXQ_dvHDsTk-65" value="+ getView(): mat4" style="text;strokeColor=none;fillColor=none;align=left;verticalAlign=top;spacingLeft=4;spacingRight=4;overflow=hidden;rotatable=0;points=[[0,0.5],[1,0.5]];portConstraint=eastwest;whiteSpace=wrap;html=1;" parent="wzKogEVJgoXQ_dvHDsTk-62" vertex="1">
          <mxGeometry y="26" width="140" height="26" as="geometry" />
        </mxCell>
        <mxCell id="wzKogEVJgoXQ_dvHDsTk-68" value="+ getProjection(): mat4" style="text;strokeColor=none;fillColor=none;align=left;verticalAlign=top;spacingLeft=4;spacingRight=4;overflow=hidden;rotatable=0;points=[[0,0.5],[1,0.5]];portConstraint=eastwest;whiteSpace=wrap;html=1;" parent="wzKogEVJgoXQ_dvHDsTk-62" vertex="1">
          <mxGeometry y="52" width="140" height="26" as="geometry" />
        </mxCell>
        <mxCell id="QrIwYJtL0aNKeHC7VFV3-45" style="edgeStyle=orthogonalEdgeStyle;rounded=0;orthogonalLoop=1;jettySize=auto;html=1;exitX=1;exitY=0.5;exitDx=0;exitDy=0;" edge="1" parent="wzKogEVJgoXQ_dvHDsTk-62" source="wzKogEVJgoXQ_dvHDsTk-68" target="wzKogEVJgoXQ_dvHDsTk-68">
          <mxGeometry relative="1" as="geometry" />
        </mxCell>
        <mxCell id="wzKogEVJgoXQ_dvHDsTk-69" value="ComponentRegistry" style="swimlane;fontStyle=1;align=center;verticalAlign=top;childLayout=stackLayout;horizontal=1;startSize=26;horizontalStack=0;resizeParent=1;resizeParentMax=0;resizeLast=0;collapsible=1;marginBottom=0;whiteSpace=wrap;html=1;" parent="1" vertex="1">
          <mxGeometry x="694" y="180" width="160" height="130" as="geometry" />
        </mxCell>
        <mxCell id="QrIwYJtL0aNKeHC7VFV3-17" value="+ add(entity, comp)" style="text;strokeColor=none;fillColor=none;align=left;verticalAlign=top;spacingLeft=4;spacingRight=4;overflow=hidden;rotatable=0;points=[[0,0.5],[1,0.5]];portConstraint=eastwest;whiteSpace=wrap;html=1;" vertex="1" parent="wzKogEVJgoXQ_dvHDsTk-69">
          <mxGeometry y="26" width="160" height="26" as="geometry" />
        </mxCell>
        <mxCell id="QrIwYJtL0aNKeHC7VFV3-19" value="+ get&amp;lt;C&amp;gt;(entity)" style="text;strokeColor=none;fillColor=none;align=left;verticalAlign=top;spacingLeft=4;spacingRight=4;overflow=hidden;rotatable=0;points=[[0,0.5],[1,0.5]];portConstraint=eastwest;whiteSpace=wrap;html=1;" vertex="1" parent="wzKogEVJgoXQ_dvHDsTk-69">
          <mxGeometry y="52" width="160" height="26" as="geometry" />
        </mxCell>
        <mxCell id="QrIwYJtL0aNKeHC7VFV3-64" value="+ remove&amp;lt;C&amp;gt;(entity)" style="text;strokeColor=none;fillColor=none;align=left;verticalAlign=top;spacingLeft=4;spacingRight=4;overflow=hidden;rotatable=0;points=[[0,0.5],[1,0.5]];portConstraint=eastwest;whiteSpace=wrap;html=1;" vertex="1" parent="wzKogEVJgoXQ_dvHDsTk-69">
          <mxGeometry y="78" width="160" height="26" as="geometry" />
        </mxCell>
        <mxCell id="QrIwYJtL0aNKeHC7VFV3-65" value="+ removeAll(entity)" style="text;strokeColor=none;fillColor=none;align=left;verticalAlign=top;spacingLeft=4;spacingRight=4;overflow=hidden;rotatable=0;points=[[0,0.5],[1,0.5]];portConstraint=eastwest;whiteSpace=wrap;html=1;" vertex="1" parent="wzKogEVJgoXQ_dvHDsTk-69">
          <mxGeometry y="104" width="160" height="26" as="geometry" />
        </mxCell>
        <mxCell id="QrIwYJtL0aNKeHC7VFV3-71" style="edgeStyle=orthogonalEdgeStyle;rounded=0;orthogonalLoop=1;jettySize=auto;html=1;" edge="1" parent="1" source="wzKogEVJgoXQ_dvHDsTk-76" target="QrIwYJtL0aNKeHC7VFV3-49">
          <mxGeometry relative="1" as="geometry">
            <Array as="points">
              <mxPoint x="854" y="500" />
              <mxPoint x="774" y="500" />
            </Array>
          </mxGeometry>
        </mxCell>
        <mxCell id="wzKogEVJgoXQ_dvHDsTk-76" value="Transform" style="swimlane;fontStyle=1;align=center;verticalAlign=top;childLayout=stackLayout;horizontal=1;startSize=26;horizontalStack=0;resizeParent=1;resizeParentMax=0;resizeLast=0;collapsible=1;marginBottom=0;whiteSpace=wrap;html=1;" parent="1" vertex="1">
          <mxGeometry x="794" y="550" width="120" height="138" as="geometry" />
        </mxCell>
        <mxCell id="QrIwYJtL0aNKeHC7VFV3-8" value="- translation: Vec3" style="text;strokeColor=none;fillColor=none;align=left;verticalAlign=top;spacingLeft=4;spacingRight=4;overflow=hidden;rotatable=0;points=[[0,0.5],[1,0.5]];portConstraint=eastwest;whiteSpace=wrap;html=1;" vertex="1" parent="wzKogEVJgoXQ_dvHDsTk-76">
          <mxGeometry y="26" width="120" height="26" as="geometry" />
        </mxCell>
        <mxCell id="QrIwYJtL0aNKeHC7VFV3-9" value="- rotation: Quat" style="text;strokeColor=none;fillColor=none;align=left;verticalAlign=top;spacingLeft=4;spacingRight=4;overflow=hidden;rotatable=0;points=[[0,0.5],[1,0.5]];portConstraint=eastwest;whiteSpace=wrap;html=1;" vertex="1" parent="wzKogEVJgoXQ_dvHDsTk-76">
          <mxGeometry y="52" width="120" height="26" as="geometry" />
        </mxCell>
        <mxCell id="QrIwYJtL0aNKeHC7VFV3-6" value="- scale: Vec3" style="text;strokeColor=none;fillColor=none;align=left;verticalAlign=top;spacingLeft=4;spacingRight=4;overflow=hidden;rotatable=0;points=[[0,0.5],[1,0.5]];portConstraint=eastwest;whiteSpace=wrap;html=1;" vertex="1" parent="wzKogEVJgoXQ_dvHDsTk-76">
          <mxGeometry y="78" width="120" height="26" as="geometry" />
        </mxCell>
        <mxCell id="QrIwYJtL0aNKeHC7VFV3-7" value="" style="line;strokeWidth=1;fillColor=none;align=left;verticalAlign=middle;spacingTop=-1;spacingLeft=3;spacingRight=3;rotatable=0;labelPosition=right;points=[];portConstraint=eastwest;strokeColor=inherit;" vertex="1" parent="wzKogEVJgoXQ_dvHDsTk-76">
          <mxGeometry y="104" width="120" height="8" as="geometry" />
        </mxCell>
        <mxCell id="wzKogEVJgoXQ_dvHDsTk-82" value="+ getMatrix(): M&lt;span style=&quot;background-color: transparent; color: light-dark(rgb(0, 0, 0), rgb(255, 255, 255));&quot;&gt;at4&lt;/span&gt;" style="text;strokeColor=none;fillColor=none;align=left;verticalAlign=top;spacingLeft=4;spacingRight=4;overflow=hidden;rotatable=0;points=[[0,0.5],[1,0.5]];portConstraint=eastwest;whiteSpace=wrap;html=1;" parent="wzKogEVJgoXQ_dvHDsTk-76" vertex="1">
          <mxGeometry y="112" width="120" height="26" as="geometry" />
        </mxCell>
        <mxCell id="QrIwYJtL0aNKeHC7VFV3-2" value="" style="group" vertex="1" connectable="0" parent="1">
          <mxGeometry x="950" y="20" width="190" height="180" as="geometry" />
        </mxCell>
        <mxCell id="T-zd2cSABAyiTnIaaSCx-3" value="Math" style="shape=module;align=left;spacingLeft=10;align=center;verticalAlign=top;whiteSpace=wrap;html=1;container=0;" parent="QrIwYJtL0aNKeHC7VFV3-2" vertex="1">
          <mxGeometry width="190" height="180" as="geometry" />
        </mxCell>
        <mxCell id="T-zd2cSABAyiTnIaaSCx-5" value="Vec3" style="swimlane;fontStyle=0;childLayout=stackLayout;horizontal=1;startSize=26;fillColor=none;horizontalStack=0;resizeParent=1;resizeParentMax=0;resizeLast=0;collapsible=1;marginBottom=0;whiteSpace=wrap;html=1;container=0;" parent="QrIwYJtL0aNKeHC7VFV3-2" vertex="1">
          <mxGeometry x="30" y="34" width="140" height="32" as="geometry" />
        </mxCell>
        <mxCell id="T-zd2cSABAyiTnIaaSCx-10" value="Mat4" style="swimlane;fontStyle=0;childLayout=stackLayout;horizontal=1;startSize=26;fillColor=none;horizontalStack=0;resizeParent=1;resizeParentMax=0;resizeLast=0;collapsible=1;marginBottom=0;whiteSpace=wrap;html=1;container=0;" parent="QrIwYJtL0aNKeHC7VFV3-2" vertex="1">
          <mxGeometry x="30" y="84" width="140" height="32" as="geometry" />
        </mxCell>
        <mxCell id="QrIwYJtL0aNKeHC7VFV3-1" value="Quat" style="swimlane;fontStyle=0;childLayout=stackLayout;horizontal=1;startSize=26;fillColor=none;horizontalStack=0;resizeParent=1;resizeParentMax=0;resizeLast=0;collapsible=1;marginBottom=0;whiteSpace=wrap;html=1;container=0;" vertex="1" parent="QrIwYJtL0aNKeHC7VFV3-2">
          <mxGeometry x="30" y="130" width="140" height="32" as="geometry" />
        </mxCell>
        <mxCell id="QrIwYJtL0aNKeHC7VFV3-48" style="edgeStyle=orthogonalEdgeStyle;rounded=0;orthogonalLoop=1;jettySize=auto;html=1;" edge="1" parent="1" source="QrIwYJtL0aNKeHC7VFV3-3" target="QrIwYJtL0aNKeHC7VFV3-22">
          <mxGeometry relative="1" as="geometry">
            <Array as="points">
              <mxPoint x="265" y="310" />
              <mxPoint x="185" y="310" />
            </Array>
          </mxGeometry>
        </mxCell>
        <mxCell id="QrIwYJtL0aNKeHC7VFV3-3" value="&lt;b&gt;TweenSystem&lt;/b&gt;" style="swimlane;fontStyle=0;childLayout=stackLayout;horizontal=1;startSize=26;horizontalStack=0;resizeParent=1;resizeParentMax=0;resizeLast=0;collapsible=1;marginBottom=0;whiteSpace=wrap;html=1;rounded=0;" vertex="1" parent="1">
          <mxGeometry x="195" y="340" width="140" height="52" as="geometry" />
        </mxCell>
        <mxCell id="QrIwYJtL0aNKeHC7VFV3-4" value="+ tween&lt;span style=&quot;background-color: transparent; color: light-dark(rgb(0, 0, 0), rgb(255, 255, 255));&quot;&gt;(entity)&lt;/span&gt;" style="text;strokeColor=none;fillColor=none;align=left;verticalAlign=top;spacingLeft=4;spacingRight=4;overflow=hidden;rotatable=0;points=[[0,0.5],[1,0.5]];portConstraint=eastwest;whiteSpace=wrap;html=1;rounded=0;" vertex="1" parent="QrIwYJtL0aNKeHC7VFV3-3">
          <mxGeometry y="26" width="140" height="26" as="geometry" />
        </mxCell>
        <mxCell id="QrIwYJtL0aNKeHC7VFV3-10" value="World" style="swimlane;fontStyle=1;align=center;verticalAlign=middle;childLayout=stackLayout;horizontal=1;startSize=26;horizontalStack=0;resizeParent=1;resizeParentMax=0;resizeLast=0;collapsible=1;marginBottom=0;whiteSpace=wrap;html=1;fontSize=16;" vertex="1" parent="1">
          <mxGeometry x="420" y="180" width="140" height="130" as="geometry" />
        </mxCell>
        <mxCell id="QrIwYJtL0aNKeHC7VFV3-16" value="+ createEntity()" style="text;strokeColor=none;fillColor=none;align=left;verticalAlign=top;spacingLeft=4;spacingRight=4;overflow=hidden;rotatable=0;points=[[0,0.5],[1,0.5]];portConstraint=eastwest;whiteSpace=wrap;html=1;" vertex="1" parent="QrIwYJtL0aNKeHC7VFV3-10">
          <mxGeometry y="26" width="140" height="26" as="geometry" />
        </mxCell>
        <mxCell id="QrIwYJtL0aNKeHC7VFV3-63" value="+ removeEntity(e&lt;span style=&quot;background-color: transparent; color: light-dark(rgb(0, 0, 0), rgb(255, 255, 255));&quot;&gt;ntity)&lt;/span&gt;" style="text;strokeColor=none;fillColor=none;align=left;verticalAlign=top;spacingLeft=4;spacingRight=4;overflow=hidden;rotatable=0;points=[[0,0.5],[1,0.5]];portConstraint=eastwest;whiteSpace=wrap;html=1;" vertex="1" parent="QrIwYJtL0aNKeHC7VFV3-10">
          <mxGeometry y="52" width="140" height="26" as="geometry" />
        </mxCell>
        <mxCell id="QrIwYJtL0aNKeHC7VFV3-15" value="+ registerSystem(sys)" style="text;strokeColor=none;fillColor=none;align=left;verticalAlign=top;spacingLeft=4;spacingRight=4;overflow=hidden;rotatable=0;points=[[0,0.5],[1,0.5]];portConstraint=eastwest;whiteSpace=wrap;html=1;" vertex="1" parent="QrIwYJtL0aNKeHC7VFV3-10">
          <mxGeometry y="78" width="140" height="26" as="geometry" />
        </mxCell>
        <mxCell id="QrIwYJtL0aNKeHC7VFV3-13" value="+ update(dt)" style="text;strokeColor=none;fillColor=none;align=left;verticalAlign=top;spacingLeft=4;spacingRight=4;overflow=hidden;rotatable=0;points=[[0,0.5],[1,0.5]];portConstraint=eastwest;whiteSpace=wrap;html=1;" vertex="1" parent="QrIwYJtL0aNKeHC7VFV3-10">
          <mxGeometry y="104" width="140" height="26" as="geometry" />
        </mxCell>
        <mxCell id="QrIwYJtL0aNKeHC7VFV3-22" value="System" style="swimlane;fontStyle=1;align=center;verticalAlign=top;childLayout=stackLayout;horizontal=1;startSize=26;horizontalStack=0;resizeParent=1;resizeParentMax=0;resizeLast=0;collapsible=1;marginBottom=0;whiteSpace=wrap;html=1;" vertex="1" parent="1">
          <mxGeometry x="105" y="219" width="160" height="52" as="geometry" />
        </mxCell>
        <mxCell id="QrIwYJtL0aNKeHC7VFV3-25" value="+ update(dt&lt;span style=&quot;background-color: transparent; color: light-dark(rgb(0, 0, 0), rgb(255, 255, 255));&quot;&gt;)&lt;/span&gt;" style="text;strokeColor=none;fillColor=none;align=left;verticalAlign=top;spacingLeft=4;spacingRight=4;overflow=hidden;rotatable=0;points=[[0,0.5],[1,0.5]];portConstraint=eastwest;whiteSpace=wrap;html=1;" vertex="1" parent="QrIwYJtL0aNKeHC7VFV3-22">
          <mxGeometry y="26" width="160" height="26" as="geometry" />
        </mxCell>
        <mxCell id="QrIwYJtL0aNKeHC7VFV3-27" value="1..*" style="endArrow=open;html=1;endSize=12;startArrow=diamondThin;startSize=14;startFill=0;edgeStyle=orthogonalEdgeStyle;align=right;verticalAlign=bottom;rounded=0;fontColor=none;noLabel=1;" edge="1" parent="1" source="QrIwYJtL0aNKeHC7VFV3-10" target="wzKogEVJgoXQ_dvHDsTk-69">
          <mxGeometry x="1" y="-10" relative="1" as="geometry">
            <mxPoint x="105" y="173" as="sourcePoint" />
            <mxPoint x="265" y="173" as="targetPoint" />
            <Array as="points">
              <mxPoint x="615" y="245" />
              <mxPoint x="615" y="245" />
            </Array>
            <mxPoint as="offset" />
          </mxGeometry>
        </mxCell>
        <mxCell id="QrIwYJtL0aNKeHC7VFV3-28" value="1..*" style="endArrow=open;html=1;endSize=12;startArrow=diamondThin;startSize=14;startFill=0;edgeStyle=orthogonalEdgeStyle;align=left;verticalAlign=bottom;rounded=0;" edge="1" parent="1" source="QrIwYJtL0aNKeHC7VFV3-10" target="QrIwYJtL0aNKeHC7VFV3-22">
          <mxGeometry x="1" y="-5" relative="1" as="geometry">
            <mxPoint x="275" y="190" as="sourcePoint" />
            <mxPoint x="149.00222222222223" y="340" as="targetPoint" />
            <Array as="points" />
            <mxPoint as="offset" />
          </mxGeometry>
        </mxCell>
        <mxCell id="QrIwYJtL0aNKeHC7VFV3-49" value="Component" style="swimlane;fontStyle=1;align=center;verticalAlign=top;childLayout=stackLayout;horizontal=1;startSize=26;horizontalStack=0;resizeParent=1;resizeParentMax=0;resizeLast=0;collapsible=1;marginBottom=0;whiteSpace=wrap;html=1;" vertex="1" parent="1">
          <mxGeometry x="694" y="392" width="160" height="52" as="geometry">
            <mxRectangle x="410" y="528" width="70" height="30" as="alternateBounds" />
          </mxGeometry>
        </mxCell>
        <mxCell id="QrIwYJtL0aNKeHC7VFV3-50" value="+ entityId: number" style="text;strokeColor=none;fillColor=none;align=left;verticalAlign=top;spacingLeft=4;spacingRight=4;overflow=hidden;rotatable=0;points=[[0,0.5],[1,0.5]];portConstraint=eastwest;whiteSpace=wrap;html=1;" vertex="1" parent="QrIwYJtL0aNKeHC7VFV3-49">
          <mxGeometry y="26" width="160" height="26" as="geometry" />
        </mxCell>
        <mxCell id="QrIwYJtL0aNKeHC7VFV3-56" value="0..1" style="endArrow=open;html=1;endSize=12;startArrow=diamondThin;startSize=14;startFill=0;edgeStyle=orthogonalEdgeStyle;align=left;verticalAlign=bottom;rounded=0;labelPosition=center;verticalLabelPosition=middle;labelBackgroundColor=none;" edge="1" parent="1" source="wzKogEVJgoXQ_dvHDsTk-69" target="QrIwYJtL0aNKeHC7VFV3-49">
          <mxGeometry x="1" y="10" relative="1" as="geometry">
            <mxPoint x="880" y="438" as="sourcePoint" />
            <mxPoint x="620" y="777" as="targetPoint" />
            <mxPoint y="2" as="offset" />
            <Array as="points" />
          </mxGeometry>
        </mxCell>
        <mxCell id="QrIwYJtL0aNKeHC7VFV3-75" style="edgeStyle=orthogonalEdgeStyle;rounded=0;orthogonalLoop=1;jettySize=auto;html=1;" edge="1" parent="1" source="wzKogEVJgoXQ_dvHDsTk-5" target="QrIwYJtL0aNKeHC7VFV3-49">
          <mxGeometry relative="1" as="geometry">
            <mxPoint x="883.98" y="712" as="sourcePoint" />
            <mxPoint x="803.98" y="584" as="targetPoint" />
            <Array as="points">
              <mxPoint x="684" y="500" />
              <mxPoint x="774" y="500" />
            </Array>
          </mxGeometry>
        </mxCell>
        <mxCell id="QrIwYJtL0aNKeHC7VFV3-78" value="1..*" style="endArrow=open;html=1;endSize=12;startArrow=diamondThin;startSize=14;startFill=0;edgeStyle=orthogonalEdgeStyle;align=right;verticalAlign=bottom;rounded=0;fontColor=none;noLabel=1;" edge="1" parent="1" source="gk4QDaXg1C4XhF2hDk9a-3" target="QrIwYJtL0aNKeHC7VFV3-10">
          <mxGeometry x="1" y="-10" relative="1" as="geometry">
            <mxPoint x="369" y="150" as="sourcePoint" />
            <mxPoint x="385" y="340" as="targetPoint" />
            <Array as="points">
              <mxPoint x="490" y="72" />
            </Array>
            <mxPoint as="offset" />
          </mxGeometry>
        </mxCell>
        <mxCell id="QrIwYJtL0aNKeHC7VFV3-79" value="1..*" style="endArrow=open;html=1;endSize=12;startArrow=diamondThin;startSize=14;startFill=0;edgeStyle=orthogonalEdgeStyle;align=right;verticalAlign=bottom;rounded=0;fontColor=none;noLabel=1;" edge="1" parent="1" source="gk4QDaXg1C4XhF2hDk9a-3" target="59MKXKUP5RYxz5AlFKz5-1">
          <mxGeometry x="1" y="-10" relative="1" as="geometry">
            <mxPoint x="355" y="82" as="sourcePoint" />
            <mxPoint x="431" y="82" as="targetPoint" />
            <Array as="points" />
            <mxPoint as="offset" />
          </mxGeometry>
        </mxCell>
      </root>
    </mxGraphModel>
  </diagram>
</mxfile>
